<svg xmlns="http://www.w3.org/2000/svg" viewBox="0 0 128 128">
  <style>
    .letter { fill: #2563EB; }
    @media (prefers-color-scheme: dark) {
      .letter { fill: #60A5FA; }
    }
  </style>
  <rect width="128" height="128" rx="16" fill="white"/>
  <path class="letter" d="M30.16 94V34h12.32c9.92 0 16.72 1.28 20.4 3.84 3.735 2.56 6.16 6.24 7.28 11.04 1.12 4.8 1.68 11.44 1.68 19.92 0 8.32-0.56 14.88-1.68 19.68-1.12 4.8-3.546 8.48-7.28 11.04-3.68 2.56-10.48 3.84-20.4 3.84H30.16ZM43.68 82.64h3.04c3.947 0 6.747-0.8 8.4-2.4 1.653-1.6 2.64-3.733 2.96-6.4 0.373-2.667 0.56-7.04 0.56-13.12 0-6.08-0.187-10.453-0.56-13.12-0.32-2.667-1.307-4.8-2.96-6.4-1.653-1.6-4.453-2.4-8.4-2.4H43.68V82.64Z" />
  <path class="letter" d="M78.16 94V34h32V46.24H91.68v14.24h14.24v12.24H91.68V94H78.16Z" />
</svg>
